HIERARCHY
ROOT Hips
{
	OFFSET 0.000000 0.000000 0.000000
	CHANNELS 6 Xposition Yposition Zposition Zrotation Xrotation Yrotation
	JOINT RightUpLeg
	{
		OFFSET -10.795800 0.000000 0.000000
		CHANNELS 3 Zrotation Xrotation Yrotation
		JOINT RightLeg
		{
			OFFSET 0.000000 -39.557900 0.000000
			CHANNELS 3 Zrotation Xrotation Yrotation
			JOINT RightFoot
			{
				OFFSET 0.000000 -40.613400 0.000000
				CHANNELS 3 Zrotation Xrotation Yrotation
				JOINT RightToe
				{
					OFFSET 0.000000 -1.003500 12.392200
					CHANNELS 3 Zrotation Xrotation Yrotation
					JOINT RightToeEnd
					{
						OFFSET 0.000000 1.088300 5.767000
						CHANNELS 3 Zrotation Xrotation Yrotation
						End Site
						{
						    OFFSET 0.000000 0.927200 4.913300
						}
					}
				}
			}
		}
	}
	JOINT LeftUpLeg
	{
		OFFSET 10.795800 0.000000 0.000000
		CHANNELS 3 Zrotation Xrotation Yrotation
		JOINT LeftLeg
		{
			OFFSET 0.000000 -39.557900 0.000000
			CHANNELS 3 Zrotation Xrotation Yrotation
			JOINT LeftFoot
			{
				OFFSET 0.000000 -40.613400 0.000000
				CHANNELS 3 Zrotation Xrotation Yrotation
				JOINT LeftToe
				{
					OFFSET 0.000000 -1.003500 12.392200
					CHANNELS 3 Zrotation Xrotation Yrotation
					JOINT LeftToeEnd
					{
						OFFSET 0.000000 1.088300 5.767000
						CHANNELS 3 Zrotation Xrotation Yrotation
						End Site
						{
						    OFFSET 0.000000 0.927200 4.913300
						}
					}
				}
			}
		}
	}
	JOINT Spine
	{
		OFFSET 0.000000 15.108100 0.000000
		CHANNELS 3 Zrotation Xrotation Yrotation
		JOINT Spine1
		{
			OFFSET 0.000000 12.828000 0.000000
			CHANNELS 3 Zrotation Xrotation Yrotation
			JOINT Spine2
			{
				OFFSET 0.000000 11.155500 0.000000
				CHANNELS 3 Zrotation Xrotation Yrotation
				JOINT LeftShoulder
				{
					OFFSET 2.000000 11.155500 0.000000
					CHANNELS 3 Zrotation Xrotation Yrotation
					JOINT LeftArm
					{
						OFFSET 15.139800 0.000000 0.000000
						CHANNELS 3 Zrotation Xrotation Yrotation
						JOINT LeftForeArm
						{
							OFFSET 0.000000 -26.627300 0.000000
							CHANNELS 3 Zrotation Xrotation Yrotation
							JOINT LeftHand
							{
								OFFSET 0.000000 -24.932400 0.000000
								CHANNELS 3 Zrotation Xrotation Yrotation
								JOINT LeftFinger0
								{
									OFFSET 0.000000 -8.640100 0.000000
									CHANNELS 3 Zrotation Xrotation Yrotation
									End Site
									{
									    OFFSET 0.000000 -5.000000 0.000000
									}
								}
							}
						}
					}
				}
				JOINT RightShoulder
				{
					OFFSET -2.000000 11.155500 0.000000
					CHANNELS 3 Zrotation Xrotation Yrotation
					JOINT RightArm
					{
						OFFSET -15.139800 0.000000 0.000000
						CHANNELS 3 Zrotation Xrotation Yrotation
						JOINT RightForeArm
						{
							OFFSET 0.000000 -26.627300 0.000000
							CHANNELS 3 Zrotation Xrotation Yrotation
							JOINT RightHand
							{
								OFFSET 0.000000 -24.932400 0.000000
								CHANNELS 3 Zrotation Xrotation Yrotation
								JOINT RightFinger0
								{
									OFFSET 0.000000 -8.640100 0.000000
									CHANNELS 3 Zrotation Xrotation Yrotation
									End Site
									{
									    OFFSET 0.000000 -5.000000 0.000000
									}
								}
							}
						}
					}
				}
				JOINT Neck
				{
					OFFSET 0.000000 11.155500 0.000000
					CHANNELS 3 Zrotation Xrotation Yrotation
					JOINT Head
					{
						OFFSET 0.000000 10.940000 0.000000
						CHANNELS 3 Zrotation Xrotation Yrotation
						JOINT HeadTip
						{
							OFFSET 0.000000 10.000000 0.000000
							CHANNELS 3 Zrotation Xrotation Yrotation
							End Site
							{
							    OFFSET 0.000000 5.000000 0.000000
							}
						}
					}
				}
			}
		}
	}
}
MOTION
Frames:	9
Frame Time:	0.033332
42.423200 86.457000 -26.968100 -0.029554 -0.886688 0.354655 4.310078 -0.460086 -6.140627 -0.000000 6.496458 -0.000000 7.634489 4.220396 -15.750748 -0.000000 -0.098256 -0.000000 0.000000 0.000000 -0.000000 -4.174564 0.106050 -2.489359 0.000000 6.137419 0.000000 -5.571215 8.191615 19.866693 0.000000 -10.050610 -0.000000 -0.000000 0.000000 -0.000000 -2.313211 2.399578 -1.749289 -0.000000 -0.130787 -0.000000 0.000000 0.000000 0.000000 4.624443 0.000000 8.446972 71.298835 -8.932715 21.187741 -0.000000 -18.207837 -0.000000 -7.775038 13.231701 -33.252379 -0.000000 -0.000000 -0.000000 -5.921668 -0.000000 -10.109194 -66.229548 -9.999808 -23.019992 -0.000036 -13.384698 -0.000004 7.887245 7.458391 12.347335 -0.000000 -0.000000 -0.000000 0.000000 0.000000 0.000000 4.230755 8.429717 -1.564394 -0.000000 -0.000000 -0.000000 
42.419000 86.454200 -26.955900 -0.031720 -0.894296 0.340123 4.294004 -0.430326 -6.027729 0.000000 6.501781 -0.000000 7.791731 4.161133 -15.718285 -0.000000 -0.069104 -0.000000 0.000000 0.000000 0.000000 -4.172679 0.101917 -2.480340 -0.000000 6.177933 0.000000 -5.541745 8.145223 19.881713 0.000000 -10.004900 -0.000000 0.000000 -0.000000 -0.000000 -2.312422 2.396339 -1.775440 0.000000 -0.121602 -0.000000 0.000000 0.000000 -0.000000 4.613179 0.000000 8.484581 71.330007 -8.952219 21.175835 -0.000000 -18.162464 -0.000000 -7.678665 13.255018 -33.316611 0.000000 -0.000000 -0.000000 -5.903571 0.000000 -10.103251 -66.230691 -10.030866 -23.084217 -0.000036 -13.330531 -0.000004 7.909285 7.437866 12.481439 0.000000 -0.000000 -0.000000 0.000000 0.000000 -0.000000 4.254857 8.415691 -1.562386 0.000000 0.000000 -0.000000 
42.419200 86.453400 -26.950200 -0.018807 -0.884647 0.323220 4.280738 -0.435265 -6.028822 0.000000 6.495265 -0.000000 7.836326 4.134206 -15.711640 0.000000 -0.084717 0.000000 0.000000 -0.000000 -0.000000 -4.190639 0.098713 -2.552103 0.000000 6.177641 -0.000000 -5.575568 8.147297 19.977753 -0.000000 -10.045850 -0.000000 -0.000000 0.000000 -0.000000 -2.322411 2.378848 -1.777210 -0.000000 -0.103333 -0.000000 0.000000 0.000000 -0.000000 4.610949 -0.000000 8.501652 71.339119 -8.952760 21.217179 -0.000000 -18.165877 -0.000000 -7.660640 13.341103 -33.238763 0.000000 -0.000000 -0.000000 -5.894575 -0.000000 -10.136950 -66.232758 -10.047276 -23.022252 -0.000036 -13.335009 -0.000004 7.847717 7.427927 12.447640 0.000000 0.000000 -0.000000 0.000000 0.000000 -0.000000 4.244614 8.391590 -1.597204 -0.000000 0.000000 0.000000 
42.421100 86.451800 -26.940000 -0.027466 -0.910299 0.299796 4.292115 -0.409746 -6.199224 -0.000000 6.494482 -0.000000 7.713538 4.187153 -15.595824 0.000000 -0.074613 -0.000000 0.000000 0.000000 -0.000000 -4.180315 0.124550 -2.492668 0.000000 6.194613 -0.000000 -5.579851 8.127479 19.931960 -0.000000 -10.060998 -0.000000 -0.000000 0.000000 -0.000000 -2.299441 2.417312 -1.774086 -0.000000 -0.112541 -0.000000 -0.000000 0.000000 0.000000 4.599197 0.000000 8.507175 71.378296 -8.939965 21.252970 0.000000 -18.182811 -0.000000 -7.802702 13.635222 -32.931891 0.000000 0.000000 -0.000000 -5.906312 0.000000 -10.123566 -66.246400 -10.043913 -23.199591 -0.000036 -13.290910 -0.000004 7.946617 7.519737 12.525078 0.000000 0.000000 0.000000 -0.000000 0.000000 0.000000 4.240063 8.390012 -1.616537 0.000000 0.000000 -0.000000 
42.427600 86.452400 -26.941300 -0.023646 -0.871521 0.282511 4.278916 -0.446994 -6.161205 -0.000000 6.487178 -0.000000 7.739992 4.197247 -15.580501 -0.000000 -0.146238 -0.000000 0.000000 0.000000 -0.000000 -4.188334 0.067174 -2.433738 0.000000 6.231045 -0.000000 -5.565811 8.109603 19.868012 0.000000 -10.027231 0.000000 0.000000 0.000000 -0.000000 -2.298963 2.361945 -1.770345 0.000000 -0.085083 -0.000000 -0.000000 -0.000000 0.000000 4.590069 0.000000 8.491463 71.471179 -8.949957 21.327916 0.000000 -18.088891 -0.000000 -8.205508 14.043945 -32.353335 -0.000000 0.000000 0.000000 -5.885910 0.000000 -10.143866 -66.306040 -10.030177 -23.116507 -0.000036 -13.285210 -0.000004 7.938406 7.527981 12.394990 -0.000000 -0.000000 -0.000000 -0.000000 -0.000000 0.000000 4.279871 8.410375 -1.613065 -0.000000 0.000000 -0.000000 
42.438800 86.452600 -26.928500 -0.028668 -0.909577 0.280377 4.279933 -0.380106 -6.082376 0.000000 6.453766 -0.000000 7.811508 4.167530 -15.643383 0.000000 -0.078383 -0.000000 -0.000000 0.000000 0.000000 -4.190699 0.127840 -2.465281 -0.000000 6.202887 -0.000000 -5.577179 8.127410 19.923621 0.000000 -10.082982 0.000000 -0.000000 -0.000000 -0.000000 -2.275370 2.424093 -1.785146 0.000000 -0.099514 -0.000000 0.000000 0.000000 0.000000 4.614668 0.000000 8.487508 71.492650 -8.994925 21.417487 -0.000000 -17.918971 -0.000000 -8.740533 14.388130 -32.072089 0.000000 0.000000 0.000000 -5.894988 0.000000 -10.145254 -66.350810 -10.013402 -23.148246 -0.000036 -13.231292 -0.000004 8.002138 7.485112 12.438215 -0.000000 -0.000000 -0.000000 0.000000 0.000000 0.000000 4.332373 8.430488 -1.621031 -0.000000 -0.000000 -0.000000 
42.444800 86.453100 -26.923400 -0.032875 -0.897121 0.258370 4.288763 -0.391175 -6.077304 -0.000000 6.447626 -0.000000 7.772275 4.188596 -15.675215 -0.000000 -0.092579 0.000000 -0.000000 -0.000000 0.000000 -4.190749 0.133270 -2.462419 -0.000000 6.177723 0.000000 -5.576920 8.119139 19.927286 0.000000 -10.043163 -0.000000 -0.000000 -0.000000 -0.000000 -2.265083 2.408637 -1.791769 0.000000 -0.090299 0.000000 0.000000 0.000000 -0.000000 4.619711 -0.000000 8.474653 71.565214 -8.982072 21.264212 -0.000000 -17.826893 -0.000000 -8.909665 14.601791 -32.148353 -0.000000 0.000000 -0.000000 -5.882194 0.000000 -10.149462 -66.398386 -10.010027 -23.114713 -0.000036 -13.234716 -0.000004 8.066628 7.584890 12.313892 0.000000 0.000000 -0.000000 0.000000 0.000000 -0.000000 4.376526 8.476053 -1.635512 0.000000 -0.000000 0.000000 
42.458300 86.451600 -26.920000 -0.031666 -0.893733 0.267564 4.262142 -0.388295 -5.947192 -0.000000 6.467994 0.000000 7.915711 4.106351 -15.695574 -0.000000 -0.050720 -0.000000 0.000000 0.000000 -0.000000 -4.201623 0.131806 -2.470740 -0.000000 6.180335 -0.000000 -5.564821 8.121349 19.932266 -0.000000 -10.093967 0.000000 -0.000000 -0.000000 0.000000 -2.245174 2.412228 -1.822347 -0.000000 -0.067506 -0.000000 -0.000000 0.000000 0.000000 4.646145 0.000000 8.473398 71.553196 -8.979268 21.290379 -0.000000 -17.733198 0.000000 -9.010625 14.662918 -32.236070 0.000000 0.000000 -0.000000 -5.862602 0.000000 -10.185856 -66.465253 -10.054092 -23.133733 -0.000036 -13.195855 -0.000004 8.032550 7.567569 12.465270 -0.000000 0.000000 -0.000000 -0.000000 0.000000 0.000000 4.370081 8.461729 -1.675481 -0.000000 0.000000 -0.000000 
42.472700 86.450300 -26.913700 -0.036529 -0.906913 0.282251 4.260426 -0.404968 -6.107429 -0.000000 6.529613 -0.000000 7.826069 4.123650 -15.611259 0.000000 -0.055149 0.000000 0.000000 0.000000 -0.000000 -4.208102 0.152531 -2.471348 -0.000000 6.172045 -0.000000 -5.538799 8.127263 19.934849 0.000000 -10.043995 -0.000000 0.000000 -0.000000 -0.000000 -2.216209 2.443256 -1.862330 -0.000000 -0.053606 -0.000000 0.000000 0.000000 -0.000000 4.649884 -0.000000 8.471007 71.542869 -8.953970 21.310174 -0.000000 -17.661201 -0.000000 -9.055812 14.516750 -32.308153 -0.000000 0.000000 -0.000000 -5.822916 -0.000000 -10.232016 -66.524062 -10.098166 -23.110350 -0.000036 -13.219759 -0.000004 7.977482 7.598979 12.590084 -0.000000 0.000000 0.000000 0.000000 0.000000 -0.000000 4.364760 8.468247 -1.724149 0.000000 0.000000 -0.000000 
